<svg width="1200" height="630" viewBox="0 0 1200 630" fill="none" xmlns="http://www.w3.org/2000/svg">
  <rect width="1200" height="630" fill="#F8FBFF" />
  <rect x="36" y="36" width="1128" height="558" rx="36" fill="url(#paint0_linear)" />
  <rect x="80" y="82" width="1040" height="466" rx="28" fill="white" fill-opacity="0.9" />
  <rect x="132" y="136" width="84" height="84" rx="24" fill="url(#paint1_linear)" />
  <path d="M174 157C194.987 157 212 174.013 212 195C212 215.987 194.987 233 174 233C153.013 233 136 215.987 136 195C136 174.013 153.013 157 174 157ZM174 170C160.419 170 149 181.419 149 195C149 208.581 160.419 220 174 220C187.581 220 199 208.581 199 195C199 181.419 187.581 170 174 170Z" fill="white" />
  <circle cx="174" cy="195" r="11" fill="white" />
  <path d="M264 176H783" stroke="#0F172A" stroke-width="20" stroke-linecap="round" />
  <path d="M264 224H663" stroke="#64748B" stroke-width="14" stroke-linecap="round" />
  <path d="M132 318H446" stroke="#2563EB" stroke-width="18" stroke-linecap="round" />
  <path d="M132 366H398" stroke="#94A3B8" stroke-width="18" stroke-linecap="round" />
  <rect x="132" y="418" width="260" height="84" rx="24" fill="#0F172A" />
  <path d="M169 460H298" stroke="white" stroke-width="14" stroke-linecap="round" />
  <rect x="742" y="154" width="302" height="302" rx="36" fill="#EEF6FF" />
  <circle cx="893" cy="305" r="58" fill="#2563EB" fill-opacity="0.12" />
  <circle cx="893" cy="305" r="100" stroke="#2563EB" stroke-opacity="0.22" stroke-width="4" stroke-dasharray="12 12" />
  <circle cx="893" cy="305" r="16" fill="#2563EB" />
  <defs>
    <linearGradient id="paint0_linear" x1="102" y1="54" x2="1107" y2="586" gradientUnits="userSpaceOnUse">
      <stop stop-color="#F8FBFF" />
      <stop offset="0.48" stop-color="#EFF6FF" />
      <stop offset="1" stop-color="#E0F2FE" />
    </linearGradient>
    <linearGradient id="paint1_linear" x1="144" y1="146" x2="205" y2="214" gradientUnits="userSpaceOnUse">
      <stop stop-color="#2563EB" />
      <stop offset="1" stop-color="#0EA5E9" />
    </linearGradient>
  </defs>
</svg>
