<svg width="960" height="760" viewBox="0 0 960 760" fill="none" xmlns="http://www.w3.org/2000/svg">
  <rect width="960" height="760" rx="56" fill="url(#paint0_linear)" />
  <rect x="72" y="78" width="816" height="604" rx="40" fill="white" fill-opacity="0.86" />
  <rect x="128" y="132" width="256" height="180" rx="28" fill="#EEF6FF" />
  <rect x="416" y="132" width="416" height="180" rx="28" fill="#F8FAFC" />
  <rect x="128" y="344" width="320" height="280" rx="28" fill="#0F172A" />
  <rect x="480" y="344" width="352" height="122" rx="28" fill="#DBEAFE" />
  <rect x="480" y="502" width="352" height="122" rx="28" fill="#ECFDF5" />
  <circle cx="247" cy="222" r="60" fill="#2563EB" fill-opacity="0.12" />
  <circle cx="247" cy="222" r="92" stroke="#2563EB" stroke-opacity="0.22" stroke-width="2" stroke-dasharray="8 10" />
  <circle cx="247" cy="222" r="16" fill="#2563EB" />
  <path d="M534 197H714" stroke="#CBD5E1" stroke-width="16" stroke-linecap="round" />
  <path d="M534 239H652" stroke="#E2E8F0" stroke-width="16" stroke-linecap="round" />
  <path d="M188 458C240 410.667 294.667 410.667 352 458" stroke="#60A5FA" stroke-width="18" stroke-linecap="round" />
  <path d="M188 510C236.667 565.333 291.333 565.333 352 510" stroke="#93C5FD" stroke-width="18" stroke-linecap="round" />
  <path d="M534 405H730" stroke="#2563EB" stroke-width="18" stroke-linecap="round" />
  <path d="M534 548H696" stroke="#10B981" stroke-width="18" stroke-linecap="round" />
  <circle cx="784" cy="405" r="20" fill="#2563EB" fill-opacity="0.18" />
  <circle cx="744" cy="548" r="20" fill="#10B981" fill-opacity="0.2" />
  <defs>
    <linearGradient id="paint0_linear" x1="108" y1="52" x2="857" y2="702" gradientUnits="userSpaceOnUse">
      <stop stop-color="#F8FBFF" />
      <stop offset="0.45" stop-color="#EEF6FF" />
      <stop offset="1" stop-color="#E0F2FE" />
    </linearGradient>
  </defs>
</svg>
